<?xml version="1.0" encoding="utf-8"?>
<!-- Generated by IcoMoon.io -->
<svg version="1.1" xmlns="http://www.w3.org/2000/svg" xmlns:xlink="http://www.w3.org/1999/xlink" width="70" height="1330" viewBox="0 0 70 1330">
<svg id="icon-catalonian" width="70" height="70" viewBox="0 0 70 70" x="0" y="0">
<path fill="#fcdd09" d="M70 35c0 0.003 0 0.007 0 0.011 0 1.366-0.078 2.714-0.23 4.039l0.015-0.162c-0.325 2.888-0.95 5.521-1.854 8.020l0.077-0.242c-1.623 4.51-3.975 8.39-6.949 11.7l0.029-0.032c-1.259 1.402-2.594 2.674-4.022 3.837l-0.064 0.051c-5.957 4.845-13.636 7.779-22.001 7.779s-16.044-2.934-22.065-7.83l0.064 0.051c-2.741-2.228-5.091-4.791-7.030-7.654l-0.079-0.124c-2.263-3.336-3.999-7.238-4.976-11.431l-0.046-0.235c-0.257-1.063-0.487-2.386-0.639-3.733l-0.014-0.157c-0.137-1.167-0.215-2.519-0.215-3.889s0.078-2.722 0.23-4.052l-0.015 0.163c0.663-5.865 2.691-11.151 5.757-15.677l-0.078 0.122c6.373-9.43 17.025-15.548 29.106-15.548 15.148 0 28.050 9.619 32.931 23.082l0.077 0.244c0.827 2.257 1.452 4.889 1.763 7.617l0.015 0.16c0.137 1.164 0.215 2.512 0.215 3.878 0 0.004 0 0.008 0 0.012v-0.001z"></path>
<path fill="#da121a" d="M5.894 54.444c2.018 2.987 4.369 5.55 7.045 7.727l0.065 0.051h43.997c2.741-2.228 5.091-4.791 7.030-7.654l0.079-0.124zM0.215 38.888c0.325 2.888 0.95 5.521 1.854 8.020l-0.077-0.242h66.016c0.827-2.257 1.453-4.89 1.763-7.618l0.015-0.159zM69.132 27.222c-0.356-1.564-0.742-2.864-1.2-4.13l0.076 0.242h-66.016c-0.827 2.257-1.452 4.889-1.763 7.617l-0.015 0.16h69.571c-0.167-1.505-0.397-2.828-0.7-4.123l0.046 0.234zM61.087 11.666c-1.258-1.402-2.594-2.675-4.022-3.838l-0.064-0.051h-44.002c-2.741 2.228-5.091 4.791-7.030 7.654l-0.079 0.124h58.216c-0.982-1.458-1.974-2.727-3.048-3.922l0.029 0.033z"></path>
</svg>
<svg id="icon-spanish" width="70" height="70" viewBox="0 0 70 70" x="0" y="70">
<path fill="#ffda44" d="M0 35c0 0.009 0 0.021 0 0.032 0 4.358 0.798 8.529 2.256 12.376l-0.080-0.24 32.823 3.049 32.823-3.049c1.378-3.618 2.176-7.803 2.176-12.173s-0.798-8.555-2.256-12.415l0.080 0.242-32.823-3.038-32.823 3.049c-1.378 3.607-2.177 7.778-2.177 12.136 0 0.011 0 0.022 0 0.033v-0.002z"></path>
<path fill="#d80027" d="M67.823 22.832c-4.945-13.334-17.775-22.832-32.823-22.832s-27.878 9.498-32.823 22.832z"></path>
<path fill="#d80027" d="M2.177 47.168c4.945 13.329 17.773 22.832 32.823 22.832s27.878-9.498 32.823-22.832z"></path>
</svg>
<svg id="icon-english" width="70" height="70" viewBox="0 0 70 70" x="0" y="140">
<path fill="#29337a" d="M6.164 15.168c-2.257 3.276-3.972 6.954-5.012 10.908h15.921l-10.908-10.908z"></path>
<path fill="#29337a" d="M25.198 1.401c-4.033 1.174-7.767 3.048-11.056 5.493l11.056 11.056v-16.549z"></path>
<path fill="#29337a" d="M14.964 63.69c3.085 2.159 6.531 3.83 10.234 4.908v-15.14l-10.234 10.232z"></path>
<path fill="#29337a" d="M1.553 45.334c1.157 3.749 2.931 7.226 5.197 10.32l10.32-10.32h-15.517z"></path>
<path fill="#fff" d="M6.742 14.356c-0.196 0.267-0.388 0.539-0.578 0.813l10.908 10.908h-15.921c-0.258 0.982-0.469 1.983-0.642 2.998h20.952l-14.72-14.718z"></path>
<path fill="#fff" d="M14.152 63.113c0.266 0.198 0.54 0.387 0.812 0.578l10.234-10.233v15.14c0.983 0.287 1.982 0.536 2.998 0.735v-20.263l-14.043 14.043z"></path>
<path fill="#fff" d="M0.776 42.337c0.217 1.016 0.474 2.016 0.777 2.998h15.517l-10.32 10.32c1.122 1.534 2.367 2.973 3.719 4.303l17.621-17.621h-27.314z"></path>
<path fill="#fff" d="M25.198 1.401v16.549l-11.056-11.055c-1.524 1.133-2.949 2.392-4.269 3.754l18.322 18.322v-28.304c-1.015 0.201-2.014 0.449-2.997 0.735z"></path>
<path fill="#d32030" d="M25.198 45.229l-0.105 0.106h0.105z"></path>
<path fill="#d32030" d="M28.090 42.337h0.105v-0.106z"></path>
<path fill="#d32030" d="M41.56 29.074h-0.101v0.102z"></path>
<path fill="#d32030" d="M25.301 26.077l-0.103-0.104v0.104z"></path>
<path fill="#d32030" d="M28.195 28.97v0.103h0.103z"></path>
<path fill="#252f6c" d="M44.456 60.85v7.846c3.751-1.050 7.248-2.705 10.376-4.862l-8.501-8.501c-0.679 2.387-0.928 3.621-1.875 5.517z"></path>
<path fill="#252f6c" d="M46.375 16.030l9.28-9.28c-3.334-2.442-7.116-4.302-11.2-5.446v8.060c1.091 2.186 1.183 3.846 1.919 6.667z"></path>
<path fill="#252f6c" d="M63.106 55.858c2.337-3.144 4.159-6.693 5.342-10.524h-15.866l10.524 10.524z"></path>
<path fill="#252f6c" d="M68.848 26.077c-1.062-4.037-2.829-7.784-5.157-11.112l-11.113 11.112h16.27z"></path>
<path fill="#e7e7e7" d="M48.418 42.93l13.918 13.918c0.261-0.327 0.521-0.653 0.771-0.989l-10.524-10.524h15.866c0.302-0.981 0.559-1.982 0.776-2.998h-20.581c-0.034 0.425-0.185 0.17-0.225 0.592z"></path>
<path fill="#e7e7e7" d="M46.011 17.785l10.434-10.435c-0.261-0.203-0.523-0.404-0.79-0.6l-9.28 9.28c0.096 0.367-0.453 1.379-0.364 1.755z"></path>
<path fill="#e7e7e7" d="M44.456 8.718v-7.415c-0.982-0.275-1.982-0.508-2.998-0.699v3.617c1.115 1.209 2.115 2.728 2.998 4.497z"></path>
<path fill="#e7e7e7" d="M48.182 29.074h21.309c-0.173-1.015-0.384-2.015-0.642-2.998h-16.27l11.113-11.112c-1.093-1.561-2.307-3.028-3.633-4.388l-12.517 12.516c0.337 2.27 0.488 3.589 0.64 5.982z"></path>
<path fill="#e7e7e7" d="M45.825 54.826l9.007 9.008c1.498-1.032 2.909-2.18 4.225-3.427l-11.848-11.848c-0.378 2.191-0.827 4.308-1.385 6.267z"></path>
<path fill="#e7e7e7" d="M41.459 65.363v4.031c1.016-0.189 2.015-0.423 2.998-0.699v-7.846c-0.883 1.77-1.883 3.305-2.998 4.513z"></path>
<path fill="#d71f28" d="M47.542 23.092l12.516-12.516c-1.127-1.157-2.335-2.234-3.613-3.226l-9.835 9.836c0.437 1.827 0.636 3.918 0.931 5.906z"></path>
<path fill="#d32030" d="M33.253 0.043c0.583-0.028 1.165-0.043 1.746-0.043-0.585 0-1.168 0.015-1.746 0.043z"></path>
<path fill="#d32030" d="M34.999 70c-0.582 0-1.163-0.016-1.745-0.044 0.579 0.029 1.16 0.044 1.745 0.044z"></path>
<path fill="#d32030" d="M34.999 70c2.208 0 4.365-0.214 6.459-0.606v-4.031c-1.839 1.993-3.989 4.637-6.459 4.637z"></path>
<path fill="#d71f28" d="M69.49 29.074h-21.032c0.279 4.39 0.245 8.904-0.101 13.263h20.866c0.505-2.367 0.776-4.82 0.776-7.336 0-2.022-0.18-3.999-0.51-5.927z"></path>
<path fill="#d71f28" d="M48.418 42.93c-0.194 2.068-0.872 3.679-1.209 5.63l11.848 11.848c1.172-1.111 2.268-2.299 3.278-3.561l-13.917-13.918z"></path>
<path fill="#d32030" d="M41.459 4.481v-3.877c-2.094-0.391-4.25-0.605-6.459-0.605 2.47 0 4.621 2.489 6.459 4.481z"></path>
<path fill="#29337a" d="M44.456 62.364c0.947-1.897 1.758-4.080 2.438-6.466l-2.438-2.438v8.905z"></path>
<path fill="#29337a" d="M47.197 15.207c-0.737-2.821-1.65-5.385-2.742-7.571v10.311l2.742-2.74z"></path>
<path fill="#fff" d="M49.097 43.608c0.040-0.422 0.076-0.846 0.11-1.272h-1.382l1.272 1.272z"></path>
<path fill="#fff" d="M44.456 17.948v-10.312c-0.883-1.769-1.882-3.289-2.998-4.497v19.197l6.020-6.020c-0.091-0.376-0.186-0.744-0.281-1.111l-2.741 2.742z"></path>
<path fill="#fff" d="M41.56 29.074h7.748c-0.152-2.393-0.394-4.747-0.731-7.017l-7.017 7.017z"></path>
<path fill="#fff" d="M41.459 66.86c1.115-1.209 2.114-2.728 2.998-4.497v-8.905l2.438 2.438c0.559-1.96 1.028-4.054 1.408-6.245l-6.843-6.843-0 24.051z"></path>
<path fill="#e51d35" d="M41.459 66.86v-24.051l6.843 6.843c0.336-1.951 0.601-3.975 0.795-6.044l-1.272-1.272h1.382c0.345-4.36 0.379-8.874 0.101-13.263h-7.748l7.017-7.017c-0.296-1.988-0.661-3.912-1.099-5.739l-6.019 6.020v-19.197c-1.839-1.993-3.99-3.14-6.459-3.14-0.582 0-1.163 0.015-1.746 0.043-1.721 0.086-3.41 0.298-5.058 0.623v28.304l-18.323-18.322c-1.126 1.162-2.173 2.399-3.131 3.708l14.719 14.718h-20.951c-0.328 1.927-0.51 3.905-0.51 5.926 0 2.517 0.272 4.969 0.776 7.336h27.315l-17.621 17.621c1.154 1.133 2.382 2.189 3.683 3.155l14.042-14.042v20.263c1.648 0.325 3.337 0.537 5.059 0.623 0.582 0.028 1.163 0.044 1.745 0.044 2.47 0 4.621-1.147 6.46-3.14z"></path>
</svg>
<svg id="icon-it" width="70" height="70" viewBox="0 0 70 70" x="0" y="210">
<path fill="#3f5c6c" d="M62.288 0h-54.576c-3.932 0-7.119 3.187-7.119 7.119v40.339c0 3.932 3.187 7.119 7.119 7.119h13.051s0.854 7.653-4.651 12.161c-0.412 0.318-0.569 0.868-0.386 1.355s0.662 0.799 1.181 0.768c5.837-0.403 15.637-2.824 18.093-14.285h27.288c3.932 0 7.119-3.187 7.119-7.119v-40.339c0-3.932-3.187-7.119-7.119-7.119z"></path>
<path fill="#547580" d="M35 0v54.576c-2.456 11.461-12.256 13.881-18.093 14.285-0.52 0.031-0.999-0.281-1.181-0.768s-0.026-1.037 0.386-1.355c5.505-4.509 4.651-12.161 4.651-12.161h-13.051c-3.932 0-7.119-3.187-7.119-7.119v-40.339c0-3.932 3.187-7.119 7.119-7.119z"></path>
<path fill="#f29c1f" d="M33.385 32.958l11.845 11.895c0.902 0.911 2.132 1.421 3.413 1.418 1.949-0.018 3.698-1.201 4.439-3.004s0.331-3.874-1.041-5.258l-11.836-11.896z"></path>
<path fill="#95a5a5" d="M33.397 22.685h-0.012l-6.906-6.953 0.852-0.857-7.669-5.996-3.409 3.426 5.965 7.71 0.852-0.857v0.001l6.917 6.954z"></path>
<path fill="#bdc3c7" d="M22.186 44.211c-0.671 0.69-1.593 1.079-2.555 1.079s-1.884-0.389-2.555-1.079c-1.409-1.422-1.409-3.714 0-5.136 16.553-16.62 16.202-16.391 16.321-16.391l2.077-2.095c-1.54-3.622-0.732-7.815 2.043-10.606s6.964-3.622 10.594-2.102l-6.314 6.356v5.136h5.109l6.314-6.347c1.538 3.619 0.73 7.809-2.043 10.597s-6.959 3.617-10.586 2.098c-10.109 10.167 4.422-4.453-18.405 18.491z"></path>
<path fill="#fff" d="M7.712 5.932h-1.186c-0.655 0-1.186-0.531-1.186-1.186s0.531-1.186 1.186-1.186h1.186c0.655 0 1.186 0.531 1.186 1.186s-0.531 1.186-1.186 1.186z"></path>
<path fill="#fff" d="M18.39 5.932h-5.932c-0.655 0-1.186-0.531-1.186-1.186s0.531-1.186 1.186-1.186h5.932c0.655 0 1.186 0.531 1.186 1.186s-0.531 1.186-1.186 1.186z"></path>
<path fill="#fff" d="M52.797 51.017h-1.186c-0.655 0-1.186-0.531-1.186-1.186s0.531-1.186 1.186-1.186h1.186c0.655 0 1.186 0.531 1.186 1.186s-0.531 1.186-1.186 1.186z"></path>
<path fill="#fff" d="M63.475 51.017h-5.932c-0.655 0-1.186-0.531-1.186-1.186s0.531-1.186 1.186-1.186h5.932c0.655 0 1.186 0.531 1.186 1.186s-0.531 1.186-1.186 1.186z"></path>
</svg>
<svg id="icon-seo" width="70" height="70" viewBox="0 0 70 70" x="0" y="280">
<path fill="#66c6b9" d="M34.573 18.381c0.292 0.875 0.584 1.751 1.021 2.48l-1.896 3.647 2.918 2.918 3.501-1.896c0.729 0.438 1.605 0.729 2.48 1.021l1.167 3.939h4.085l1.167-3.939c0.875-0.292 1.751-0.584 2.48-1.021l3.647 1.896 2.918-2.918-1.896-3.501c0.438-0.729 0.729-1.605 1.021-2.48l3.939-1.167v-4.231l-4.23-1.167c-0.292-0.875-0.584-1.751-1.021-2.48l2.042-3.647-2.918-2.918-3.501 1.896c-0.729-0.438-1.605-0.729-2.48-1.021l-1.313-3.793h-4.085l-1.167 3.939c-0.875 0.292-1.751 0.584-2.48 1.021l-3.501-1.896-2.918 2.918 1.896 3.501c-0.438 0.729-0.729 1.605-1.021 2.48l-3.793 1.167v4.085l3.939 1.167zM38.804 15.171c0-3.793 3.063-6.856 6.856-6.856s6.856 3.063 6.856 6.856-3.063 6.856-6.856 6.856c-3.647 0-6.856-3.063-6.856-6.856z"></path>
<path fill="#66c6b9" d="M49.161 15.171c0 1.853-1.502 3.355-3.355 3.355s-3.355-1.502-3.355-3.355c0-1.853 1.502-3.355 3.355-3.355s3.355 1.502 3.355 3.355z"></path>
<path fill="#f3705a" d="M4.522 41.867l-4.522 3.647 2.188 5.252 5.689-0.729c0.875 1.021 1.751 1.896 2.772 2.772l-0.584 5.835 5.398 2.188 3.501-4.522c1.313 0.146 2.626 0.146 3.793 0l3.647 4.522 5.252-2.188-0.729-5.689c1.021-0.875 1.896-1.751 2.772-2.772l5.835 0.584 2.188-5.398-4.522-3.501c0.146-1.313 0.146-2.626 0-3.793l4.522-3.647-2.188-5.252-5.689 0.729c-0.875-1.021-1.751-1.896-2.772-2.772l0.584-5.835-5.398-2.188-3.355 4.23c-1.313-0.146-2.626-0.146-3.793 0l-3.793-4.376-5.252 2.188 0.729 5.689c-1.167 0.875-2.042 1.751-2.918 2.772l-5.835-0.584-2.042 5.398 4.522 3.501c-0.146 1.313-0.146 2.626 0 3.939zM11.962 43.618c-2.042-4.96 0.292-10.649 5.252-12.691s10.649 0.292 12.691 5.252c2.042 4.96-0.292 10.649-5.252 12.691-4.814 2.042-10.503-0.292-12.691-5.252z"></path>
<path fill="#f3705a" d="M25.821 39.825c0 2.659-2.155 4.814-4.814 4.814s-4.814-2.155-4.814-4.814c0-2.659 2.155-4.814 4.814-4.814s4.814 2.155 4.814 4.814z"></path>
<path fill="#415a6b" d="M26.55 26.55c-7.732 7.732-7.732 20.423 0 28.301 7.732 7.732 20.423 7.732 28.301 0 7.732-7.732 7.732-20.423 0-28.301-7.877-7.732-20.423-7.732-28.301 0zM50.62 50.62c-5.543 5.543-14.442 5.543-19.84 0-5.543-5.543-5.543-14.442 0-19.84s14.442-5.543 19.84 0 5.544 14.442 0 19.84z"></path>
<path fill="#344a5e" d="M59.081 51.641c0.584 0.584 0.584 1.605 0 2.188l-5.398 5.398c-0.584 0.584-1.605 0.584-2.188 0s-0.584-1.605 0-2.188l5.398-5.398c0.729-0.584 1.605-0.584 2.188 0z"></path>
<path fill="#ffd15c" d="M68.417 68.417v0c-2.334 2.334-6.127 2.042-8.023-0.584l-6.71-8.753 5.398-5.398 8.753 6.71c2.626 2.042 2.918 5.835 0.584 8.023z"></path>
</svg>
<svg id="icon-more" width="70" height="70" viewBox="0 0 70 70" x="0" y="350">
<path fill="#fcbc40" d="M59.609 35c0 13.591-11.018 24.609-24.609 24.609s-24.609-11.018-24.609-24.609c0-13.591 11.018-24.609 24.609-24.609s24.609 11.018 24.609 24.609z"></path>
<path fill="#fff" d="M47.305 32.813h-10.117v-10.117c0-1.208-0.979-2.188-2.188-2.188s-2.188 0.979-2.188 2.188v0 10.117h-10.117c-1.208 0-2.188 0.979-2.188 2.188s0.979 2.188 2.188 2.188v0h10.117v10.117c0 1.208 0.979 2.188 2.188 2.188s2.188-0.979 2.188-2.188v0-10.117h10.117c1.208 0 2.188-0.979 2.188-2.188s-0.979-2.188-2.188-2.188v0z"></path>
</svg>
<svg id="icon-photoshop" width="70" height="70" viewBox="0 0 70 70" x="0" y="420">
<path fill="#393687" d="M54.955 70h-39.911c-8.31 0-15.045-6.735-15.045-15.045v-39.911c0-8.31 6.735-15.045 15.045-15.045h39.912c8.308 0 15.043 6.735 15.043 15.045v39.912c0 8.308-6.735 15.043-15.045 15.043z"></path>
<path fill="#89d3ff" d="M16.369 52.5h-3.877v-37.692h12.977c3.518 0 6.129 1.094 7.835 3.285 1.704 2.189 2.558 5.062 2.558 8.614 0 1.257-0.036 2.342-0.108 3.258-0.073 0.917-0.296 2.065-0.673 3.448-0.377 1.381-0.888 2.512-1.535 3.392s-1.633 1.652-2.962 2.315c-1.329 0.665-2.908 0.996-4.738 0.996h-9.477v12.385zM16.369 36.346h8.992c1.292 0 2.387-0.252 3.285-0.754 0.897-0.503 1.552-1.041 1.965-1.615 0.412-0.575 0.735-1.4 0.969-2.477 0.233-1.078 0.359-1.885 0.377-2.424 0.017-0.537 0.027-1.31 0.027-2.315 0-5.456-2.28-8.185-6.838-8.185h-8.777v17.771z"></path>
<path fill="#89d3ff" d="M39.685 45.662l3.769-0.162c0.143 1.329 0.808 2.361 1.992 3.096 1.185 0.736 2.548 1.104 4.092 1.104s2.881-0.35 4.012-1.050c1.131-0.7 1.696-1.704 1.696-3.014s-0.485-2.352-1.454-3.123c-0.969-0.771-2.154-1.381-3.554-1.831-1.4-0.448-2.808-0.923-4.227-1.427-1.419-0.502-2.665-1.292-3.742-2.369-1.329-1.257-1.992-2.791-1.992-4.604s0.727-3.501 2.181-5.063 3.814-2.341 7.081-2.341c1.15 0 2.225 0.135 3.231 0.404 1.004 0.269 1.723 0.53 2.154 0.781l0.646 0.376-1.238 3.394c-1.15-0.897-2.657-1.346-4.523-1.346-1.867 0-3.258 0.35-4.173 1.050s-1.373 1.588-1.373 2.664c0 1.185 0.573 2.119 1.723 2.8 1.148 0.683 2.441 1.257 3.877 1.723 1.435 0.467 2.862 0.987 4.281 1.562 1.417 0.575 2.62 1.473 3.608 2.692s1.481 2.835 1.481 4.846c0 2.011-0.808 3.761-2.423 5.25s-3.977 2.235-7.081 2.235c-3.106 0-5.538-0.736-7.296-2.208-1.759-1.471-2.675-3.285-2.746-5.438z"></path>
</svg>
<svg id="icon-illustrator" width="70" height="70" viewBox="0 0 70 70" x="0" y="490">
<path fill="#6d4c13" d="M54.955 70h-39.911c-8.31 0-15.045-6.735-15.045-15.045v-39.911c0-8.31 6.735-15.045 15.045-15.045h39.912c8.308 0 15.043 6.735 15.043 15.045v39.912c0 8.308-6.735 15.043-15.045 15.043z"></path>
<path fill="#ffbd2e" d="M41.3 52.5h-4.362l-3.715-12.169h-11.2l-3.554 12.169h-4.2l11.092-37.692h4.469l11.469 37.692zM32.254 36.346l-4.685-15.292-4.523 15.292h9.208z"></path>
<path fill="#ffbd2e" d="M50.453 16.477c0 0.61-0.215 1.131-0.646 1.562-0.431 0.429-0.942 0.645-1.535 0.645s-1.113-0.223-1.562-0.673c-0.45-0.448-0.673-0.96-0.673-1.535s0.223-1.086 0.673-1.536c0.448-0.448 0.969-0.673 1.562-0.673s1.104 0.215 1.535 0.646c0.432 0.433 0.646 0.954 0.646 1.564zM50.131 52.5h-3.877v-26.977h3.877v26.977z"></path>
</svg>
<svg id="icon-indesign" width="70" height="70" viewBox="0 0 70 70" x="0" y="560">
<path fill="#6f2b41" d="M54.955 70h-39.911c-8.31 0-15.045-6.735-15.045-15.045v-39.911c0-8.31 6.735-15.045 15.045-15.045h39.912c8.308 0 15.043 6.735 15.043 15.045v39.912c0 8.308-6.735 15.043-15.045 15.043z"></path>
<path fill="#ff70bd" d="M24.338 52.5h-3.877v-34.031l-3.554-0.108v-3.554h7.431v37.692z"></path>
<path fill="#ff70bd" d="M37.262 26.115c1.579-0.683 3.491-1.024 5.735-1.024s4.137 0.503 5.681 1.508v-11.791h3.877v37.692c-3.087 0.431-5.942 0.646-8.562 0.646-2.621 0-4.99-0.538-7.108-1.615-2.8-1.435-4.2-3.931-4.2-7.486v-10.177c0-3.768 1.525-6.352 4.577-7.752zM48.677 30.315c-1.867-1.004-3.913-1.506-6.138-1.506-2.119 0-3.653 0.547-4.604 1.642-0.952 1.094-1.427 2.486-1.427 4.173v9.585c0 1.652 0.592 2.945 1.777 3.877 1.292 0.968 2.889 1.453 4.792 1.453 1.902 0 3.769-0.143 5.6-0.429v-18.794z"></path>
</svg>
<svg id="icon-wordpress" width="70" height="70" viewBox="0 0 70 70" x="0" y="630">
<path fill="#00769d" d="M20.998 21.603h-3.866l10.539 29.791 5.9-16.86-4.574-12.931h-4.079v-2.839h18.061v2.839h-4.229l10.539 29.791 3.788-10.826c4.969-13.87-4.073-18.19-4.073-21.286s2.509-5.605 5.605-5.605c0.167 0 0.33 0.009 0.489 0.024-5.245-4.951-12.316-7.987-20.098-7.987-10.168 0-19.124 5.183-24.375 13.050h10.373v2.839h0z"></path>
<path fill="#00769d" d="M5.715 35c0 11.212 6.302 20.951 15.556 25.872l-13.216-37.358c-1.505 3.527-2.34 7.409-2.34 11.487z"></path>
<path fill="#00769d" d="M60.487 20.569c0.419 2.466 0.292 5.239-0.351 8.022h0.116l-0.443 1.265c-0.262 0.914-0.593 1.848-0.968 2.767l-10.077 28.23c9.234-4.927 15.52-14.655 15.52-25.853 0-5.247-1.381-10.171-3.798-14.431z"></path>
<path fill="#00769d" d="M25.968 62.863c2.845 0.922 5.88 1.422 9.032 1.422 3.007 0 5.907-0.454 8.637-1.295l-8.566-24.215-9.103 24.089z"></path>
<path fill="#00769d" d="M59.749 10.251c-6.611-6.611-15.4-10.251-24.749-10.251s-18.138 3.641-24.749 10.251-10.251 15.4-10.251 24.749c0 9.349 3.641 18.138 10.251 24.749s15.4 10.251 24.749 10.251 18.138-3.641 24.749-10.251c6.611-6.611 10.251-15.4 10.251-24.749s-3.641-18.138-10.251-24.749zM35 67.531c-17.938 0-32.531-14.593-32.531-32.531s14.593-32.531 32.531-32.531 32.531 14.593 32.531 32.531-14.593 32.531-32.531 32.531z"></path>
</svg>
<svg id="icon-amp" width="70" height="70" viewBox="0 0 70 70" x="0" y="700">
<path fill="#0379c4" d="M47 31.795l-14.682 24.434h-2.66l2.63-15.921-8.258 0.013c-0 0-0.001 0-0.001 0-0.733 0-1.327-0.594-1.327-1.327 0-0 0-0.001 0-0.001v0c0-0.315 0.293-0.848 0.293-0.848l14.634-24.405 2.707 0.012-2.696 15.946 8.316-0.012c0 0 0.001 0 0.001 0 0.733 0 1.327 0.594 1.327 1.327 0 0 0 0.001 0 0.001v-0c0 0.297-0.117 0.559-0.282 0.78l0.001 0.001zM35 0c-19.33 0-35 15.668-35 35s15.67 35 35 35 35-15.67 35-35-15.668-35-35-35z"></path>
</svg>
<svg id="icon-jquery" width="70" height="70" viewBox="0 0 70 70" x="0" y="770">
<path fill="#1a1918" d="M66.954 28.252l2.929 0.016s-5.445 7.378-5.889 7.979c-0.144 0.195-0.364 0.405-0.475 0.665-0.281 0.654-0.57 2.090-0.57 2.090l-2.68 0.013s0.417-1.496 0.4-2.293c-0.015-0.696-0.371-1.392-0.57-2.090-0.202-0.707-0.475-2.090-0.475-2.090h2.755l0.38 1.52 4.196-5.811z"></path>
<path fill="#1a1918" d="M61.408 29.808c0.54 0.326 0.872 2.123 0.872 2.123s-2.828 0.042-4.367 0.042h-1.33l-1.615 7.029h-2.47s1.537-7.639 1.9-9.024c0.118-0.448 0.806-0.371 1.967-0.371h1.855c1.198 0 2.598-0.153 3.187 0.201zM49.911 33.232s0.077-0.451-0.261-0.974c-0.289-0.445-0.556-0.549-1.316-0.573-2.146-0.067-2.104 1.523-2.104 1.523l3.681 0.024zM52.238 31.411c0.314 1.134-0.285 3.8-0.285 3.8s-3.13-0.052-4.844 0c-0.533 0.016-1.171-0.058-1.33 0.19-0.223 0.348 0.082 0.883 0.34 1.109 0.297 0.26 0.877 0.29 1.085 0.316 1.392 0.177 4.304 0.046 4.304 0.046l-0.504 2.234s-4.116 0.206-6.174-0.285c-0.406-0.097-0.787-0.292-1.045-0.57-0.070-0.076-0.131-0.179-0.198-0.269-0.053-0.071-0.208-0.306-0.277-0.491-0.47-1.253 0.055-3.653 0.57-4.939 0.060-0.149 0.135-0.338 0.214-0.499 0.099-0.2 0.182-0.426 0.261-0.546 0.053-0.083 0.119-0.136 0.174-0.214 0.064-0.092 0.138-0.181 0.206-0.261 0.19-0.22 0.406-0.376 0.665-0.57 0.858-0.642 2.41-1.141 4.275-0.95 0.702 0.072 1.762 0.323 2.28 1.045 0.139 0.193 0.207 0.576 0.285 0.855zM40.91 29.598l2.395-0.014s-1.335 6.331-2.015 9.418h-2.755c-1.925 0-3.64 0.238-4.369-1.14-0.708-1.338-0.032-3.539 0.285-5.035 0.224-1.058 0.696-3.221 0.696-3.221l2.481-0.023s-0.701 3.367-0.993 5.049c-0.104 0.602-0.32 1.169-0.095 1.615 0.214 0.424 0.513 0.454 1.425 0.475 0.289 0.007 1.235 0 1.235 0l1.71-7.124zM29.701 34.158c0.251-0.891 0.616-1.857 0.57-2.66-0.050-0.859-0.77-1.64-1.235-1.805-1.399-0.494-2.709 0.197-3.23 0.76-0.673 0.73-0.902 1.582-1.14 2.755-0.177 0.871-0.323 1.79 0 2.47 0.572 1.201 2.355 0.939 4.275 0.95 0.285-0.764 0.52-1.621 0.76-2.47zM33.026 30.643c0.273 1.989-0.776 4.184-1.499 6.094 0.737 0.067 1.383-0.010 1.43 0.045 0.048 0.071-0.494 2.279-0.683 2.285-0.585 0.015-2.524 0.031-3.332 0.031-2.638 0-5.106 0.172-6.364-1.14-0.511-0.533-0.864-1.447-0.95-2.090-0.142-1.073 0.036-2.255 0.285-3.23 0.225-0.88 0.514-1.71 0.95-2.47 1.109-1.935 3.037-3.371 6.269-3.040 0.627 0.065 1.527 0.339 2.090 0.665 0.039 0.023 0.175 0.131 0.206 0.15 0.76 0.484 1.453 1.638 1.599 2.7zM21.355 29.61c-0.935 0-1.726-0.011-2.577-0.011-0.206 0.692-0.364 1.484-0.57 2.28h2.66c0.168-0.718 0.328-1.542 0.487-2.268zM18.112 32.543c-0.13 0.427-0.818 3.304-1.045 4.37-0.392 1.845-0.444 3.76-2.47 3.514-0.194 0.713-0.44 1.667-0.657 2.462 0.831 0.017 1.596 0.081 2.272 0.008 0.416-0.045 1.167-0.225 1.33-0.38 0.066-0.063 0.111-0.033 0.19-0.095 0.882-0.689 1.099-1.64 1.425-2.945 0.52-2.084 1.185-5.078 1.52-6.934h-2.565z"></path>
<path fill="#21609b" d="M12.128 37.388l-0.055 0.142c-0.937 1.824-2.596 2.943-4.963 2.992-1.107 0.023-2.161-0.261-2.85-0.57-1.486-0.668-2.737-1.906-3.419-3.23-0.979-1.897-1.156-4.536 0.88-6.507 0.031 0-0.247 0.427-0.216 0.427l-0.056 0.182c-1.468 4.595 3.054 8.532 7.449 8.082 1.056-0.108 2.403-0.687 3.23-1.52z"></path>
<path fill="#21609b" d="M9.468 35.488c1.106 0.008 2.261-0.509 2.945-1.235-0.598 1.519-2.331 2.495-4.654 2.185-1.946-0.26-3.799-2.218-3.99-4.18-0.14-1.428 0.358-2.28 1.178-3.313-0.285 0.541-0.391 0.957-0.418 1.223-0.311 3.088 2.467 5.303 4.939 5.32z"></path>
<path fill="#21609b" d="M12.302 31.652c-0.172 0.394-1.162 1.139-1.599 1.232-1.731 0.369-2.839-0.452-3.42-1.386-0.086-0.139-0.246-0.52-0.274-0.617-0.225-0.766-0.122-1.924 0.55-2.523-0.202 0.57-0.232 1.232-0.125 1.662 0.065 0.26 0.261 0.714 0.458 1 0.358 0.52 0.585 0.647 1.045 0.923 0.207 0.124 0.429 0.224 0.525 0.252 0.436 0.128 1.357 0.466 2.84-0.543z"></path>
</svg>
<svg id="icon-javascript" width="70" height="70" viewBox="0 0 70 70" x="0" y="840">
<path fill="#f0db4f" d="M0 0h70v70h-70z"></path>
<path fill="#323330" d="M64.271 53.305c-0.512-3.194-2.595-5.875-8.763-8.377-2.143-0.985-4.531-1.69-5.243-3.314-0.253-0.945-0.286-1.477-0.126-2.049 0.459-1.856 2.675-2.435 4.432-1.903 1.131 0.379 2.202 1.251 2.848 2.642 3.021-1.956 3.014-1.943 5.124-3.287-0.772-1.198-1.184-1.75-1.69-2.262-1.817-2.029-4.292-3.074-8.251-2.994-0.685 0.086-1.377 0.18-2.063 0.266-1.976 0.499-3.859 1.537-4.964 2.928-3.314 3.759-2.369 10.34 1.664 13.049 3.972 2.981 9.808 3.66 10.553 6.448 0.725 3.414-2.509 4.518-5.722 4.125-2.369-0.492-3.686-1.697-5.11-3.886-2.622 1.517-2.622 1.517-5.316 3.067 0.639 1.397 1.311 2.029 2.382 3.241 5.070 5.144 17.759 4.891 20.035-2.894 0.093-0.266 0.705-2.049 0.213-4.798zM38.054 32.172h-6.548c0 5.656-0.027 11.272-0.027 16.928 0 3.6 0.186 6.9-0.399 7.912-0.958 1.989-3.44 1.743-4.571 1.357-1.151-0.566-1.737-1.371-2.415-2.509-0.186-0.326-0.326-0.579-0.373-0.599-1.777 1.085-3.547 2.176-5.323 3.26 0.885 1.817 2.189 3.394 3.859 4.418 2.495 1.497 5.849 1.956 9.356 1.151 2.282-0.665 4.252-2.043 5.283-4.139 1.491-2.748 1.171-6.075 1.158-9.755 0.033-6.002 0-12.004 0-18.026z"></path>
</svg>
<svg id="icon-nodejs" width="64" height="70" viewBox="0 0 64 70" x="0" y="910">
<path fill="#8cc84b" d="M28.926 0.889c1.728-0.989 3.979-0.994 5.706 0 8.687 4.908 17.376 9.809 26.061 14.721 1.634 0.92 2.726 2.738 2.71 4.62v29.531c0.012 1.96-1.188 3.822-2.912 4.721-8.658 4.881-17.312 9.769-25.968 14.65-1.764 1.009-4.060 0.931-5.769-0.16-2.596-1.505-5.196-3.002-7.792-4.505-0.53-0.316-1.128-0.568-1.503-1.082 0.331-0.446 0.923-0.502 1.404-0.697 1.083-0.345 2.079-0.898 3.074-1.434 0.252-0.172 0.559-0.106 0.8 0.048 2.22 1.273 4.42 2.582 6.647 3.843 0.475 0.274 0.956-0.090 1.362-0.316 8.496-4.802 17.003-9.586 25.498-14.389 0.315-0.151 0.489-0.486 0.463-0.83 0.006-9.742 0.002-19.485 0.003-29.227 0.036-0.391-0.19-0.751-0.544-0.911-8.628-4.859-17.252-9.726-25.878-14.586-0.142-0.099-0.319-0.158-0.509-0.158s-0.365 0.059-0.51 0.159l0.003-0.002c-8.627 4.862-17.249 9.733-25.875 14.592-0.352 0.16-0.589 0.514-0.547 0.907 0.002 9.742 0 19.485 0 29.228-0.002 0.022-0.003 0.047-0.003 0.073 0 0.328 0.191 0.611 0.467 0.745l0.005 0.002c2.302 1.305 4.607 2.602 6.911 3.903 1.298 0.698 2.891 1.114 4.321 0.578 1.262-0.453 2.146-1.74 2.122-3.080 0.012-9.685-0.006-19.371 0.009-29.054-0.032-0.43 0.376-0.785 0.794-0.745 1.106-0.007 2.214-0.015 3.32 0.003 0.462-0.010 0.779 0.453 0.722 0.886-0.004 9.746 0.012 19.493-0.007 29.239 0.003 2.597-1.064 5.424-3.467 6.695-2.96 1.533-6.618 1.208-9.542-0.262-2.531-1.263-4.947-2.755-7.434-4.108-1.728-0.894-2.923-2.763-2.91-4.722v-29.531c-0.018-1.921 1.118-3.772 2.802-4.679 8.657-4.885 17.312-9.774 25.967-14.662z"></path>
<path fill="#8cc84b" d="M36.478 21.345c3.776-0.243 7.817-0.144 11.215 1.716 2.63 1.425 4.089 4.417 4.135 7.339-0.073 0.394-0.486 0.612-0.862 0.585-1.095-0.002-2.191 0.015-3.287-0.007-0.465 0.018-0.735-0.411-0.793-0.821-0.315-1.398-1.077-2.783-2.393-3.458-2.020-1.012-4.363-0.961-6.566-0.94-1.608 0.085-3.338 0.225-4.7 1.17-1.046 0.716-1.364 2.163-0.99 3.327 0.352 0.836 1.317 1.106 2.107 1.355 4.55 1.19 9.372 1.072 13.835 2.638 1.848 0.638 3.655 1.88 4.288 3.814 0.827 2.593 0.465 5.692-1.38 7.774-1.496 1.713-3.675 2.645-5.848 3.152-2.891 0.645-5.891 0.661-8.827 0.375-2.761-0.315-5.634-1.040-7.765-2.921-1.822-1.582-2.713-4.048-2.624-6.428 0.021-0.402 0.421-0.682 0.806-0.649 1.103-0.009 2.206-0.012 3.309 0.002 0.441-0.032 0.767 0.349 0.79 0.765 0.204 1.332 0.704 2.73 1.866 3.52 2.242 1.446 5.055 1.347 7.622 1.388 2.127-0.094 4.514-0.123 6.25-1.529 0.916-0.802 1.187-2.143 0.94-3.297-0.268-0.974-1.287-1.428-2.163-1.725-4.492-1.421-9.367-0.905-13.815-2.512-1.806-0.638-3.552-1.845-4.246-3.7-0.968-2.626-0.525-5.874 1.514-7.885 1.987-2.001 4.856-2.771 7.584-3.047z"></path>
</svg>
<svg id="icon-sass" width="70" height="70" viewBox="0 0 70 70" x="0" y="980">
<path fill="#cf649a" d="M60.238 38.91c-2.447 0.014-4.566 0.602-6.344 1.477-0.656-1.299-1.313-2.434-1.422-3.281-0.123-0.984-0.273-1.586-0.123-2.762s0.834-2.844 0.834-2.981c-0.014-0.123-0.151-0.725-1.559-0.738s-2.625 0.273-2.762 0.643-0.41 1.217-0.588 2.092c-0.246 1.285-2.816 5.838-4.279 8.23-0.479-0.93-0.889-1.75-0.971-2.406-0.123-0.984-0.273-1.586-0.123-2.762s0.834-2.844 0.834-2.98c-0.014-0.123-0.15-0.725-1.558-0.738s-2.625 0.273-2.762 0.643-0.287 1.244-0.588 2.092c-0.287 0.848-3.705 8.449-4.594 10.432-0.451 1.012-0.848 1.818-1.135 2.365s-0.014 0.041-0.041 0.096c-0.246 0.465-0.383 0.725-0.383 0.725v0.014c-0.191 0.342-0.396 0.67-0.492 0.67-0.068 0-0.205-0.916 0.027-2.174 0.506-2.639 1.736-6.754 1.723-6.904 0-0.068 0.232-0.793-0.793-1.162-0.998-0.369-1.353 0.246-1.436 0.246s-0.15 0.219-0.15 0.219 1.107-4.635-2.119-4.635c-2.023 0-4.813 2.201-6.193 4.211-0.875 0.479-2.734 1.49-4.703 2.57-0.752 0.41-1.531 0.848-2.27 1.244l-0.15-0.164c-3.91-4.17-11.143-7.123-10.842-12.729 0.109-2.037 0.82-7.41 13.891-13.918 10.705-5.332 19.277-3.869 20.767-0.615 2.119 4.648-4.58 13.289-15.709 14.533-4.238 0.479-6.467-1.162-7.027-1.777-0.588-0.643-0.67-0.67-0.889-0.547-0.355 0.191-0.137 0.766 0 1.107 0.328 0.861 1.695 2.393 4.020 3.158 2.037 0.67 7.014 1.039 13.029-1.285 6.74-2.611 12.004-9.857 10.459-15.914-1.572-6.166-11.799-8.189-21.465-4.758-5.756 2.051-11.99 5.25-16.475 9.447-5.332 4.977-6.18 9.324-5.824 11.129 1.244 6.439 10.117 10.637 13.672 13.74-0.178 0.096-0.342 0.191-0.492 0.273-1.777 0.875-8.545 4.416-10.24 8.162-1.914 4.238 0.301 7.287 1.777 7.697 4.566 1.271 9.242-1.012 11.771-4.771 2.515-3.76 2.215-8.641 1.053-10.869l-0.041-0.082 1.395-0.82c0.902-0.533 1.791-1.025 2.57-1.449-0.437 1.189-0.752 2.598-0.916 4.648-0.191 2.406 0.793 5.523 2.092 6.754 0.574 0.533 1.258 0.547 1.682 0.547 1.504 0 2.188-1.244 2.939-2.734 0.93-1.818 1.75-3.924 1.75-3.924s-1.025 5.701 1.777 5.701c1.025 0 2.051-1.326 2.516-2.010v0.014s0.027-0.041 0.082-0.137c0.046-0.066 0.1-0.151 0.152-0.237l0.013-0.023v-0.027c0.41-0.711 1.326-2.338 2.693-5.031 1.764-3.473 3.459-7.82 3.459-7.82s0.164 1.066 0.67 2.816c0.301 1.039 0.957 2.174 1.463 3.281-0.41 0.574-0.656 0.902-0.656 0.902l0.014 0.014c-0.328 0.438-0.697 0.902-1.080 1.367-1.395 1.668-3.062 3.568-3.281 4.115-0.26 0.642-0.205 1.121 0.301 1.504 0.369 0.273 1.025 0.328 1.723 0.273 1.258-0.082 2.133-0.396 2.57-0.588 0.684-0.246 1.463-0.615 2.215-1.162 1.367-1.012 2.201-2.447 2.119-4.361-0.041-1.053-0.383-2.092-0.807-3.076 0.123-0.178 0.246-0.356 0.369-0.547 2.16-3.158 3.828-6.631 3.828-6.631s0.164 1.066 0.67 2.816c0.26 0.889 0.779 1.86 1.244 2.817-2.023 1.654-3.295 3.568-3.732 4.826-0.807 2.324-0.178 3.377 1.012 3.623 0.533 0.109 1.299-0.137 1.873-0.383 0.711-0.232 1.572-0.629 2.365-1.217 1.367-1.012 2.68-2.42 2.611-4.32-0.041-0.875-0.273-1.736-0.588-2.557 1.723-0.711 3.951-1.121 6.781-0.779 6.084 0.711 7.287 4.512 7.055 6.098s-1.504 2.461-1.928 2.734c-0.424 0.26-0.561 0.356-0.52 0.547 0.055 0.287 0.246 0.273 0.615 0.219 0.506-0.082 3.199-1.299 3.309-4.224 0.164-3.76-3.404-7.862-9.734-7.821zM13.316 54.729c-2.010 2.201-4.84 3.035-6.043 2.324-1.299-0.752-0.793-3.992 1.682-6.33 1.504-1.422 3.459-2.734 4.744-3.541 0.287-0.178 0.725-0.437 1.244-0.752 0.082-0.055 0.137-0.082 0.137-0.082 0.096-0.055 0.205-0.123 0.314-0.191 0.916 3.336 0.041 6.262-2.078 8.572zM28.014 44.734c-0.697 1.709-2.174 6.098-3.063 5.852-0.766-0.205-1.23-3.527-0.151-6.809 0.547-1.654 1.709-3.623 2.393-4.389 1.108-1.23 2.311-1.641 2.611-1.135 0.355 0.656-1.354 5.414-1.791 6.481zM40.141 50.531c-0.301 0.151-0.574 0.26-0.697 0.178-0.096-0.055 0.123-0.26 0.123-0.26s1.518-1.627 2.119-2.379c0.342-0.437 0.752-0.943 1.189-1.518v0.164c0 1.969-1.887 3.281-2.734 3.814zM49.492 48.398c-0.219-0.164-0.191-0.67 0.547-2.256 0.287-0.629 0.943-1.682 2.078-2.68 0.137 0.41 0.219 0.807 0.205 1.176-0.014 2.461-1.764 3.377-2.83 3.76z"></path>
</svg>
<svg id="icon-html-5" width="70" height="70" viewBox="0 0 70 70" x="0" y="1050">
<path fill="#fc490b" d="M4.408 2.317l4.543 58.121c0.068 0.873 0.659 1.617 1.494 1.882l23.906 7.579c0.423 0.134 0.877 0.134 1.299 0l23.906-7.579c0.835-0.265 1.425-1.009 1.494-1.882l4.543-58.121c0.098-1.25-0.89-2.317-2.143-2.317h-56.898c-1.253 0-2.241 1.068-2.143 2.317zM53.942 20.35h-29.608l0.894 8.24h28.071l-1.836 23.491-16.462 5.219-16.462-5.219-0.959-12.273h8.64v6.020l9.011 2.419 8.958-2.419 0.695-9.594h-27.584l-1.831-23.429h39.063l-0.59 7.545z"></path>
</svg>
<svg id="icon-css-3" width="70" height="70" viewBox="0 0 70 70" x="0" y="1120">
<path fill="#2196f3" d="M4.375 0l5.578 63 25.047 7 25.038-6.996 5.587-63.004z"></path>
<path fill="#fafafa" d="M53.699 20.602l-0.704 7.914-2.126 23.726-15.881 4.392-15.859-4.392-1.107-12.407h7.77l0.577 6.436 8.628 2.323 8.636-2.328 1.177-10.723-27.16 0.074-0.77-7.333 28.582-0.337 0.578-7.849-29.925 0.083-0.503-7.302h38.78z"></path>
</svg>
<svg id="icon-ux-design" width="70" height="70" viewBox="0 0 70 70" x="0" y="1190">
<path fill="#25d9f8" d="M57.537 25.175l-16.406 15.548-6.131 23.413c3.543 2.316 7.765 3.676 12.305 3.676 12.439 0 22.695-10.12 22.695-22.559 0-8.754-5.159-16.341-12.463-20.079z"></path>
<path fill="#ff641a" d="M32.971 40.723l-20.508-15.548c-7.305 3.738-12.463 11.325-12.463 20.079 0 12.439 10.257 22.559 22.695 22.559 4.539 0 8.762-1.36 12.305-3.676l-2.029-23.413z"></path>
<path fill="#ffda2d" d="M57.559 24.746c0 0.164 0 0.287-0.041 0.41l-22.518 9.434-22.518-9.434c-0.041-0.123-0.041-0.246-0.041-0.41 0-12.428 10.131-22.559 22.559-22.559s22.559 10.131 22.559 22.559z"></path>
<path fill="#fdbf00" d="M57.559 24.746c0 0.164 0 0.287-0.041 0.41l-22.518 9.434v-32.402c12.428 0 22.559 10.131 22.559 22.559z"></path>
<path fill="#9cdd05" d="M47.305 22.695c-4.539 0-8.762 1.36-12.305 3.676l10.232 18.453c7.184-3.676 12.142-11.079 12.305-19.65-3.075-1.574-6.547-2.48-10.232-2.48z"></path>
<path fill="#ff9100" d="M22.695 22.695c-3.685 0-7.157 0.906-10.232 2.48 0.162 8.571 5.121 15.973 12.305 19.65l10.232-18.453c-3.543-2.316-7.765-3.676-12.305-3.676z"></path>
<path fill="#979fef" d="M45.254 45.254c0 7.916-4.102 14.848-10.254 18.867-6.152-4.019-10.254-10.951-10.254-18.867 0-0.164 0-0.287 0.041-0.41h20.426c0.041 0.123 0.041 0.246 0.041 0.41z"></path>
<path fill="#737ee6" d="M45.254 45.254c0 7.916-4.102 14.848-10.254 18.867v-19.277h10.213c0.041 0.123 0.041 0.246 0.041 0.41z"></path>
<path fill="#47568c" d="M45.213 44.844c-3.076 1.559-6.521 2.461-10.213 2.461s-7.137-0.902-10.213-2.461c0.123-7.752 4.143-14.519 10.213-18.457 6.070 3.938 10.090 10.705 10.213 18.457z"></path>
<path fill="#2c3b73" d="M45.213 44.844c-3.076 1.559-6.521 2.461-10.213 2.461v-20.918c6.070 3.938 10.090 10.705 10.213 18.457z"></path>
</svg>
<svg id="icon-github" width="70" height="70" viewBox="0 0 70 70" x="0" y="1260">
<path d="M35 0c-19.329 0-35 15.671-35 35 0 19.331 15.671 35 35 35s35-15.669 35-35c-0-19.329-15.671-35-35-35zM44.804 61.663c-0.201-2.739-0.426-6.132-0.44-7.505-0.087-1.054-0.201-3.736-2.747-5.449 10.108-0.846 14.919-6.433 15.264-13.816 0.289-4.204-1.383-7.901-4.351-10.885 0.151-3.191-0.096-6.974-0.302-8.636-2.279-0.656-7.595 2.15-9.080 3.351-3.133-1.216-10.8-1.643-15.459 0-3.303-2.323-7.063-3.758-9.113-3.358-1.892 4.193-0.676 8.157-0.306 8.63-2.437 2.227-5.836 4.968-4.913 10.71 1.481 8.42 7.405 12.961 16.942 14.072-2.034 0.416-2.378 1.934-2.548 2.592-6.405 2.642-8.236-1.632-9.045-2.745-2.688-3.327-5.101-2.362-5.25-2.31-0.144 0.052-0.254 0.262-0.238 0.363 0.135 0.717 1.599 1.446 1.671 1.505 1.984 1.479 2.719 4.15 3.172 4.911 2.846 4.679 9.461 2.739 9.524 2.778 0.004 0.409-0.046 3.852-0.085 6.532-12.062-3.295-20.936-14.298-20.936-27.403 0-15.706 12.731-28.437 28.437-28.437s28.438 12.731 28.438 28.437c0 12.256-7.766 22.667-18.633 26.663z"></path>
</svg>
</svg>
